<svg xmlns="http://www.w3.org/2000/svg" viewBox="0 0 100 60" width="20" height="20">
  <path fill="#FF9900" d="M22.5 28.5c0 2.2-.4 3.9-1.2 5.1-.8 1.2-2.1 1.8-3.8 1.8-1.5 0-2.7-.5-3.5-1.5V35H11V18h3.2v6.2c.8-1 2-1.5 3.5-1.5 1.7 0 3 .6 3.8 1.8.8 1.2 1.2 2.9 1.2 5zm-3.3.1c0-1.4-.2-2.4-.7-3.1-.5-.7-1.2-1-2.1-1-.9 0-1.6.3-2.1 1s-.7 1.7-.7 3.1c0 1.4.2 2.4.7 3.1.5.7 1.2 1 2.1 1 .9 0 1.6-.3 2.1-1 .5-.7.7-1.7.7-3.1zM36.2 35h-3.2l-3.3-12.1L26.4 35h-3.2l-4.5-17h3.3l3 12.3 3.3-12.3h2.8l3.3 12.3 3-12.3h3.3zM50.4 32.7c-1.1 1.6-2.7 2.5-4.8 2.5-1.6 0-2.9-.4-3.8-1.2-.9-.8-1.4-1.9-1.4-3.3 0-1.5.6-2.6 1.7-3.4 1.1-.8 2.8-1.2 5-1.2h3.1v-.8c0-1.1-.3-1.9-.8-2.4-.5-.5-1.4-.8-2.5-.8-1.1 0-2 .2-2.6.7-.6.5-1 .1-1.3 1.9l-2.8-1c.6-1.5 1.5-2.6 2.7-3.3 1.2-.7 2.7-1.1 4.5-1.1 2.1 0 3.7.5 4.7 1.5 1 1 1.5 2.5 1.5 4.4V35h-3v-2.3zm-.2-4.5h-2.8c-1.3 0-2.3.2-2.9.6-.6.4-.9 1-.9 1.9 0 .8.3 1.4.8 1.8.5.4 1.2.6 2.1.6 1.2 0 2.2-.4 2.9-1.1.6-.7.8-1.6.8-2.8v-1z"/>
  <path fill="#FF9900" d="M12 42.5c16.5 8 36.5 8 52 0l-3.5-3.5c-13.5 7-31.5 7-45 0l-3.5 3.5z"/>
</svg>
