<svg xmlns="http://www.w3.org/2000/svg" viewBox="0 0 128 128" width="20" height="20">
  <path fill="#2496ED" d="M122.9 49.3c-2.9-2.1-8.5-3.3-14.4-1.2-1.3-4.9-5.1-8.8-10.1-10.2l-3.3 5.9c3.2.9 5.7 3.5 6.4 6.7-3.9-.7-7.8.2-10.8 2.4-2.3-3.6-6-6-10.3-6.4l-1.8 6.4c2.8.3 5.2 1.9 6.7 4.3-5.2 0-10.3 2.1-13.9 5.7H9.2C4.1 62.9 0 67 0 72.1v2.8c0 18 14.6 32.6 32.6 32.6h62.8c18 0 32.6-14.6 32.6-32.6v-5.6c0-7.8-2.9-14.9-5.1-20zm-97 10.2h11.2v11.2H25.9V59.5zm14 0h11.2v11.2H39.9V59.5zm14 0h11.2v11.2H53.9V59.5zm14 0h11.2v11.2H67.9V59.5z"/>
</svg>
