<svg xmlns="http://www.w3.org/2000/svg" viewBox="0 0 128 128" width="20" height="20">
  <path fill="#EA4C1D" d="M43 128c11.6 0 21-9.4 21-21V86H43c-11.6 0-21 9.4-21 21s9.4 21 21 21z"/>
  <path fill="#0ACF83" d="M22 64c0-11.6 9.4-21 21-21h21v42H43c-11.6 0-21-9.4-21-21z"/>
  <path fill="#1ABCFE" d="M22 21C22 9.4 31.4 0 43 0h21v42H43c-11.6 0-21-9.4-21-21z"/>
  <path fill="#FF7262" d="M64 0h21c11.6 0 21 9.4 21 21s-9.4 21-21 21H64V0z"/>
  <path fill="#A259FF" d="M106 64c0 11.6-9.4 21-21 21s-21-9.4-21-21 9.4-21 21-21 21 9.4 21 21z"/>
</svg>
