<svg xmlns="http://www.w3.org/2000/svg" viewBox="0 0 128 128" width="20" height="20">
  <path fill="#EA4335" d="M78.6 47.9l-13.7 13.7 13.7 13.7c3.8-3.8 6.1-9 6.1-14.8s-2.3-11-6.1-12.6z"/>
  <path fill="#4285F4" d="M64.9 34.2c-15.8 0-28.6 12.8-28.6 28.6s12.8 28.6 28.6 28.6c11.5 0 21.4-6.8 25.9-16.6l-13.7-13.7h-12.2v-13.7h25.9c.7 2.3 1 4.7 1 7.2 0 22-17.9 39.9-39.9 39.9S25 76.8 25 54.8 42.9 14.9 64.9 14.9c10.4 0 19.8 4 26.8 10.5l-9.7 9.7c-4.4-4.2-10.4-6.9-17.1-6.9z"/>
  <path fill="#FBBC05" d="M36.3 62.8c0-5.8 2.3-11 6.1-14.8l-13.7-13.7c-7.2 7.2-11.7 17.2-11.7 28.5s4.5 21.3 11.7 28.5l13.7-13.7c-3.8-3.8-6.1-9-6.1-14.8z"/>
  <path fill="#34A853" d="M64.9 91.4c10.6 0 20.1-5.3 25.9-13.4l-13.7-13.7c-3.2 5-8.8 8.4-15.2 8.4-9.9 0-18.1-6.7-20.5-15.9l-13.7 13.7c5.6 12.4 18 20.9 32.2 20.9z"/>
</svg>
