<svg xmlns="http://www.w3.org/2000/svg" viewBox="0 0 128 128" width="20" height="20">
  <path fill="#181717" d="M64 0C28.7 0 0 28.7 0 64c0 28.3 18.3 52.3 43.8 60.8 3.2.6 4.4-1.4 4.4-3.1 0-1.5-.1-6.6-.1-12-16.1 3.5-20.1-3.9-21.4-7.5-1-2.4-4.1-7.5-7-9.1-2.4-1.3-5.8-4.5-.1-4.6 5.4-.1 9.3 5 10.6 7.1 6.2 10.5 16.2 7.5 20.2 5.7 1-.7 2.1-2.4 3-3.6-14.3-1.6-29.3-7.2-29.3-31.8 0-7 2.5-12.8 6.6-17.3-1-.2-2.9-2.7-2.9-7.3 0-5.7 4.4-7.2 4.4-7.2 4.5 1.4 15.3 10.4 15.3 10.4 6.7-1.9 13.9-1.9 20.6 0 0 0 10.8-9 15.3-10.4 0 0 4.4 1.5 4.4 7.2 0 4.6-1.9 7.1-2.9 7.3 4.1 4.5 6.6 10.3 6.6 17.3 0 24.7-15.1 30.2-29.4 31.8 1.1 1 2.1 2.9 2.1 5.9 0 8.5-.1 15.4-.1 17.5 0 1.7 1.2 3.7 4.4 3.1C109.7 116.3 128 92.3 128 64 128 28.7 99.3 0 64 0z"/>
</svg>
