<svg xmlns="http://www.w3.org/2000/svg" viewBox="0 0 128 128" width="20" height="20">
  <path fill="#5382A1" d="M43.7 93.9c-2.4 1.3-4.9 2.5-7.3 3.8-3.4 1.7-4 3.7-1.1 6.1 16.8 14.1 48.9 12.3 64.9-3.4 3.3-3.2.1-5-3.3-6.4-15-5.9-38.4-6-53.2-.1zm-2.8 15.3c15 6 36.4 5.9 50.8-1 5.9-2.8 10.3-4.8 6.4-9.3-15.6 13.5-47.5 13.8-63.5.7-2.6-2.1-4.8 2.2 6.3 9.6zM88.7 73.1c-15.3-7.5-47.3-6.6-61.9 2-2.7 1.6-4.9.4-2.8-2 11.2-12.8 35.1-14.8 54-8 12.1 4.3 14.2 4.4 10.7 8zm-51.5 8c14.6-5.8 37.8-5.8 52.4.1 4.5 1.8 6.9 3.5 3.3 6.4-15.8 12.6-47.5 12.8-63.2.7-3.9-3 1.7-5.1 7.5-7.2z"/>
  <path fill="#E76F00" d="M68.5 0c-4 9.1-9 17.5-12.1 26.8-4.7 14.2-1.9 24.3 8 33.6-7.8-6.7-12-14.6-9.8-23.7C56.6 27.6 63.4 17.8 68.5 0zm-15.8 19.3c-2.1 7-5.4 13.4-6.8 20.6-2.4 12.5 1.5 21.6 11.5 29.5-6.6-4.9-10.4-11.4-9.7-19 .7-8.3 3.6-16.1 5-24.1z"/>
</svg>
