<svg xmlns="http://www.w3.org/2000/svg" viewBox="0 0 128 128" width="20" height="20">
  <path fill="#00758F" d="M62.6 37.4c-6.8 0-14.7 2.2-20.7 7.7-1.3 1.2-2.5 2.5-3.6 3.9-.3-1.6-.8-3.2-1.7-4.6-2.5-4.2-7.5-6.3-12.4-5.2-4.9 1.1-8.7 4.9-9.8 9.8-.7 3.2-.2 6.5.9 9.5 2.2 6.1 7.1 10.8 13.3 12.8 1.8.6 3.7.9 5.6.9 4 0 7.8-1.3 10.9-3.8 2.2 2.9 5.3 5 8.9 6 4.3 1.2 8.9.7 12.9-1.3 3.9-2 7.1-5.3 9.2-9.3.9 2.8 2.6 5.3 5 7.1 3.5 2.6 7.9 3.8 12.3 3.4 4.4-.4 8.5-2.4 11.5-5.6 3.9-4.2 6-9.8 5.8-15.5-.2-5.7-2.6-11.1-6.7-15-4.1-3.9-9.7-5.9-15.4-5.7z"/>
  <path fill="#F29111" d="M96.5 50.2c-3.1 0-6.1.9-8.7 2.6s-4.6 4.1-5.8 7.1c-1.2 3-.1 6.5 1.5 9.1s4.2 4.6 7.2 5.7c3 1.1 6.4 1 9.4-.3s5.5-3.5 6.9-6.4c1.4-2.9 1.7-6.3.8-9.4-.9-3.1-2.9-5.7-5.7-7.2-1.7-.8-3.6-1.2-5.6-1.2z"/>
</svg>
