<svg xmlns="http://www.w3.org/2000/svg" viewBox="0 0 128 128" width="20" height="20">
  <ellipse cx="64" cy="64" rx="64" ry="40" fill="#777BB4"/>
  <path fill="#FFFFFF" d="M37.7 50.4h11.2c3.5 0 6.1.7 7.7 2 1.6 1.3 2.2 3.3 1.8 5.8-.4 2.8-1.7 5.1-3.9 6.8-2.2 1.7-5.3 2.5-9.3 2.5h-5.2l-3.3 10.1H29l7.7-27.2zm7.1 5.4l-2.4 7h4.8c1.7 0 3-.3 3.9-1 .9-.7 1.4-1.7 1.6-3 .2-1.1 0-1.9-.6-2.4-.6-.5-1.6-.7-3-.7h-4.3zm21.3-5.4h7.7l-3.3 10.1h7.8l3.3-10.1h7.7l-7.7 27.2h-7.7l3.5-11.7h-7.8l-3.5 11.7h-7.7l7.7-27.2zm28.3 0h11.2c3.5 0 6.1.7 7.7 2 1.6 1.3 2.2 3.3 1.8 5.8-.4 2.8-1.7 5.1-3.9 6.8-2.2 1.7-5.3 2.5-9.3 2.5h-5.2l-3.3 10.1h-7.7l7.7-27.2zm7.1 5.4l-2.4 7h4.8c1.7 0 3-.3 3.9-1 .9-.7 1.4-1.7 1.6-3 .2-1.1 0-1.9-.6-2.4-.6-.5-1.6-.7-3-.7h-4.3z"/>
</svg>
