<svg xmlns="http://www.w3.org/2000/svg" viewBox="0 0 128 128" width="20" height="20">
  <circle cx="64" cy="64" r="64" fill="#FF6C37"/>
  <path fill="#FFFFFF" d="M94.6 42.4L78 32.8c-1.3-.7-2.9-.7-4.2 0L57.2 42.4c-1.3.7-2.1 2.1-2.1 3.6v19.2c0 1.5.8 2.9 2.1 3.6L73.8 78.4c1.3.7 2.9.7 4.2 0l16.6-9.6c1.3-.7 2.1-2.1 2.1-3.6V46c0-1.5-.8-2.9-2.1-3.6zM75.9 37.7l11.7 6.8-11.7 6.8-11.7-6.8 11.7-6.8zm-15.6 25.1V51.7l11.7 6.8v11.1l-11.7-6.8zm29.3 0L77.9 69.6V58.5l11.7-6.8v11.1zM33.4 61.6l16.6 9.6-5.8 10-16.6-9.6 5.8-10z"/>
</svg>
