<svg xmlns="http://www.w3.org/2000/svg" viewBox="0 0 110 110" width="20" height="20">
  <path fill="#3776AB" d="M54.3 0C24.4 0 26.2 13 26.2 13l.1 13.5h28.7v4.1H15.6S0 28.9 0 59c0 30.2 13.6 29.1 13.6 29.1h8.1v-11.4s-.4-13.6 13.6-13.6h23.4s13.1.2 13.1-12.6V13S73.7 0 54.3 0zm-15 8.7a4.4 4.4 0 1 1 0 8.8 4.4 4.4 0 0 1 0-8.8z"/>
  <path fill="#FFD43B" d="M55.7 110c29.9 0 28.1-13 28.1-13l-.1-13.5H55V79.4h39.4S110 81.1 110 51c0-30.2-13.6-29.1-13.6-29.1h-8.1v11.4s.4 13.6-13.6 13.6H51.3s-13.1-.2-13.1 12.6v32.5s-1.9 13 17.5 13zm15-8.7a4.4 4.4 0 1 1 0-8.8 4.4 4.4 0 0 1 0 8.8z"/>
</svg>
