<svg xmlns="http://www.w3.org/2000/svg" viewBox="0 0 128 128" width="20" height="20">
  <path fill="#0065A9" d="M98.6 8.5L25.9 44.8 7.4 36.3c-2.3-1.1-5.1-.2-6.2 2.1-.5 1-.6 2.2-.3 3.3l12.8 42.3L.9 86.3c-1.4 1.8-1.1 4.4.7 5.8.7.6 1.6.9 2.5.9.8 0 1.6-.2 2.3-.7l18.5-8.5 73.7 35.8c2.9 1.4 6.3.2 7.7-2.7.5-1 .7-2.2.7-3.3V14.5c0-3.2-2.6-5.8-5.8-5.8-1.2 0-2.3.3-3.3.8zM96.8 106.8L38.4 64l58.4-42.8v85.6z"/>
  <path fill="#007ACC" d="M96.8 21.2L38.4 64l58.4 42.8V21.2z"/>
  <path fill="#1F9CF0" d="M96.8 21.2L68.7 64l28.1 42.8V21.2z"/>
</svg>
